<svg width="44" height="45" viewBox="0 0 44 45" fill="none" xmlns="http://www.w3.org/2000/svg">
<g filter="url(#filter0_d_85_787)">
<rect x="2" y="1.76465" width="40" height="40" rx="20" fill="url(#paint0_linear_85_787)" fill-opacity="0.07"/>
<rect x="2.5" y="2.26465" width="39" height="39" rx="19.5" stroke="#8C8C8C"/>
<path d="M18.5 13.4312H25.5C28.1666 13.4312 30.3333 15.5978 30.3333 18.2645V25.2645C30.3333 26.5464 29.8241 27.7757 28.9176 28.6822C28.0112 29.5886 26.7818 30.0978 25.5 30.0978H18.5C15.8333 30.0978 13.6666 27.9312 13.6666 25.2645V18.2645C13.6666 16.9826 14.1759 15.7532 15.0823 14.8468C15.9887 13.9404 17.2181 13.4312 18.5 13.4312ZM18.3333 15.0978C17.5376 15.0978 16.7746 15.4139 16.212 15.9765C15.6494 16.5391 15.3333 17.3022 15.3333 18.0978V25.4312C15.3333 27.0895 16.675 28.4311 18.3333 28.4311H25.6666C26.4623 28.4311 27.2253 28.1151 27.7879 27.5525C28.3506 26.9899 28.6666 26.2268 28.6666 25.4312V18.0978C28.6666 16.4395 27.325 15.0978 25.6666 15.0978H18.3333ZM26.375 16.3478C26.6512 16.3478 26.9162 16.4576 27.1115 16.6529C27.3069 16.8483 27.4166 17.1132 27.4166 17.3895C27.4166 17.6658 27.3069 17.9307 27.1115 18.1261C26.9162 18.3214 26.6512 18.4312 26.375 18.4312C26.0987 18.4312 25.8337 18.3214 25.6384 18.1261C25.443 17.9307 25.3333 17.6658 25.3333 17.3895C25.3333 17.1132 25.443 16.8483 25.6384 16.6529C25.8337 16.4576 26.0987 16.3478 26.375 16.3478ZM22 17.5978C23.105 17.5978 24.1648 18.0368 24.9462 18.8182C25.7276 19.5996 26.1666 20.6594 26.1666 21.7645C26.1666 22.8696 25.7276 23.9294 24.9462 24.7108C24.1648 25.4922 23.105 25.9312 22 25.9312C20.8949 25.9312 19.8351 25.4922 19.0537 24.7108C18.2723 23.9294 17.8333 22.8696 17.8333 21.7645C17.8333 20.6594 18.2723 19.5996 19.0537 18.8182C19.8351 18.0368 20.8949 17.5978 22 17.5978ZM22 19.2645C21.3369 19.2645 20.701 19.5279 20.2322 19.9967C19.7634 20.4656 19.5 21.1014 19.5 21.7645C19.5 22.4275 19.7634 23.0634 20.2322 23.5323C20.701 24.0011 21.3369 24.2645 22 24.2645C22.663 24.2645 23.2989 24.0011 23.7677 23.5323C24.2366 23.0634 24.5 22.4275 24.5 21.7645C24.5 21.1014 24.2366 20.4656 23.7677 19.9967C23.2989 19.5279 22.663 19.2645 22 19.2645Z" fill="#2A341E"/>
</g>
<defs>
<filter id="filter0_d_85_787" x="0" y="0.764648" width="44" height="44" filterUnits="userSpaceOnUse" color-interpolation-filters="sRGB">
<feFlood flood-opacity="0" result="BackgroundImageFix"/>
<feColorMatrix in="SourceAlpha" type="matrix" values="0 0 0 0 0 0 0 0 0 0 0 0 0 0 0 0 0 0 127 0" result="hardAlpha"/>
<feOffset dy="1"/>
<feGaussianBlur stdDeviation="1"/>
<feComposite in2="hardAlpha" operator="out"/>
<feColorMatrix type="matrix" values="0 0 0 0 0.321569 0 0 0 0 0.345098 0 0 0 0 0.4 0 0 0 0.06 0"/>
<feBlend mode="normal" in2="BackgroundImageFix" result="effect1_dropShadow_85_787"/>
<feBlend mode="normal" in="SourceGraphic" in2="effect1_dropShadow_85_787" result="shape"/>
</filter>
<linearGradient id="paint0_linear_85_787" x1="22" y1="1.76465" x2="23.2874" y2="52.7902" gradientUnits="userSpaceOnUse">
<stop offset="0.66372" stop-color="white"/>
<stop offset="1" stop-color="#F5F5F5"/>
</linearGradient>
</defs>
</svg>
