<svg width="1457" height="220" viewBox="0 0 1457 220" fill="none" xmlns="http://www.w3.org/2000/svg">
<path opacity="0.05" d="M224.763 3.54369V216.921H189.763V70.7805L124.675 216.921H100.421L35.0263 70.7805V216.921H0.026317V3.54369H37.7895L112.702 170.868L187.307 3.54369H224.763ZM286.627 31.7893V94.4209H360.311V122.974H286.627V188.368H369.521V216.921H251.627V3.23667H369.521V31.7893H286.627ZM577.396 3.54369L497.264 216.921H456.738L376.299 3.54369H413.755L477.001 181L540.554 3.54369H577.396ZM718.448 219.07C704.12 219.07 691.225 216.614 679.763 211.702C668.301 206.585 659.296 199.421 652.746 190.21C646.196 181 642.921 170.254 642.921 157.974H680.377C681.196 167.184 684.778 174.757 691.123 180.693C697.673 186.628 706.781 189.596 718.448 189.596C730.524 189.596 739.939 186.731 746.693 181C753.448 175.064 756.825 167.491 756.825 158.281C756.825 151.117 754.676 145.283 750.377 140.781C746.284 136.278 741.065 132.798 734.72 130.342C728.579 127.886 719.983 125.225 708.93 122.359C695.012 118.675 683.652 114.991 674.851 111.307C666.255 107.418 658.886 101.482 652.746 93.4998C646.606 85.5174 643.535 74.8741 643.535 61.57C643.535 49.2893 646.606 38.5437 652.746 29.3332C658.886 20.1226 667.483 13.0612 678.535 8.14896C689.588 3.23667 702.38 0.780528 716.913 0.780528C737.585 0.780528 754.471 5.99983 767.57 16.4384C780.875 26.6723 788.243 40.7952 789.676 58.8068H750.992C750.377 51.0291 746.693 44.377 739.939 38.8507C733.185 33.3244 724.281 30.5612 713.228 30.5612C703.199 30.5612 695.012 33.1197 688.667 38.2367C682.322 43.3536 679.149 50.7221 679.149 60.3419C679.149 66.8916 681.094 72.3156 684.983 76.6139C689.076 80.7074 694.193 83.9823 700.334 86.4384C706.474 88.8946 714.866 91.5554 725.509 94.4209C739.632 98.3098 751.094 102.199 759.895 106.088C768.901 109.976 776.474 116.014 782.614 124.202C788.959 132.184 792.132 142.93 792.132 156.438C792.132 167.286 789.164 177.52 783.228 187.14C777.497 196.76 769.003 204.538 757.746 210.474C746.693 216.205 733.594 219.07 718.448 219.07ZM952.143 3.54369V32.0963H895.344V216.921H860.344V32.0963H803.239V3.54369H952.143ZM1097.09 173.324H1007.75L992.397 216.921H955.862L1032.31 3.23667H1072.84L1149.28 216.921H1112.44L1097.09 173.324ZM1087.27 144.772L1052.57 45.6051L1017.57 144.772H1087.27ZM1280.97 216.921L1198.38 121.438V216.921H1163.38V3.54369H1198.38V100.868L1281.28 3.54369H1325.18L1232.46 110.386L1326.72 216.921H1280.97ZM1373.53 31.7893V94.4209H1447.21V122.974H1373.53V188.368H1456.42V216.921H1338.53V3.23667H1456.42V31.7893H1373.53Z" fill="black"/>
</svg>
